<?xml version="1.0" encoding="UTF-8" standalone="no"?>
<!-- Created with Inkscape (http://www.inkscape.org/) -->

<svg
   xmlns:dc="http://purl.org/dc/elements/1.1/"
   xmlns:cc="http://creativecommons.org/ns#"
   xmlns:rdf="http://www.w3.org/1999/02/22-rdf-syntax-ns#"
   xmlns:svg="http://www.w3.org/2000/svg"
   xmlns="http://www.w3.org/2000/svg"
   xmlns:sodipodi="http://sodipodi.sourceforge.net/DTD/sodipodi-0.dtd"
   xmlns:inkscape="http://www.inkscape.org/namespaces/inkscape"
   width="1800"
   height="1000"
   id="svg4154"
   version="1.1"
   inkscape:version="0.48.2 r9819"
   sodipodi:docname="New document 2">
  <defs
     id="defs4156">
    <inkscape:path-effect
       effect="spiro"
       id="path-effect4179"
       is_visible="true" />
    <inkscape:path-effect
       is_visible="true"
       id="path-effect4177"
       effect="spiro" />
    <inkscape:path-effect
       is_visible="true"
       id="path-effect4173"
       effect="spiro" />
    <inkscape:path-effect
       effect="spiro"
       id="path-effect3583-3"
       is_visible="true" />
  </defs>
  <sodipodi:namedview
     id="base"
     pagecolor="#ffffff"
     bordercolor="#666666"
     borderopacity="1.0"
     inkscape:pageopacity="0.0"
     inkscape:pageshadow="2"
     inkscape:zoom="0.24748737"
     inkscape:cx="1175.8191"
     inkscape:cy="323.22841"
     inkscape:document-units="px"
     inkscape:current-layer="layer1"
     showgrid="false"
     showborder="true"
     inkscape:showpageshadow="false"
     inkscape:window-width="1280"
     inkscape:window-height="739"
     inkscape:window-x="0"
     inkscape:window-y="26"
     inkscape:window-maximized="1" />
  <metadata
     id="metadata4159">
    <rdf:RDF>
      <cc:Work
         rdf:about="">
        <dc:format>image/svg+xml</dc:format>
        <dc:type
           rdf:resource="http://purl.org/dc/dcmitype/StillImage" />
        <dc:title></dc:title>
      </cc:Work>
    </rdf:RDF>
  </metadata>
  <g
     inkscape:label="Layer 1"
     inkscape:groupmode="layer"
     id="layer1"
     transform="translate(0,-52.362183)">
    <path
       style="fill:none;stroke:#000000;stroke-width:13.16682053px;stroke-linecap:butt;stroke-linejoin:miter;stroke-opacity:1;display:inline"
       d="m 144.37357,847.92218 c 3.13876,-40.66261 26.16058,-79.32106 60.41689,-101.45258 34.25632,-22.13152 78.96094,-27.22821 117.31976,-13.37539 36.27248,13.09936 64.79389,40.99833 95.00342,64.97062 15.10476,11.98615 30.99951,23.20684 48.57884,31.13078 17.57933,7.92393 37.01378,12.45154 56.20624,10.58846 15.71606,-1.52562 30.79405,-7.27052 44.61816,-14.90048 13.8241,-7.62996 26.5134,-17.13185 39.06964,-26.70594 12.55623,-9.57408 25.06852,-19.27966 38.62669,-27.37275 13.55818,-8.09309 28.27664,-14.57811 43.85363,-17.16258 19.57699,-3.24813 39.81308,-0.1956 58.61392,6.15557 18.80084,6.35117 36.34449,15.90786 53.47001,25.9341 17.12553,10.02624 33.98024,20.59062 51.87318,29.17267 17.89295,8.58204 36.99307,15.18711 56.77662,16.74275 31.53477,2.47967 63.90797,-8.59146 87.32046,-29.86223 23.41247,-21.27077 37.52907,-52.43669 38.07687,-84.06406"
       id="path3571-7"
       inkscape:connector-curvature="0"
       sodipodi:nodetypes="caaaac"
       inkscape:path-effect="#path-effect3583-3"
       inkscape:original-d="m 144.37357,847.92218 c 163.98057,8.1381 103.18921,-112.02114 177.73665,-114.82797 78.73904,-2.96452 120.97346,106.24834 199.7885,106.68986 65.00879,0.35838 101.34999,-81.91286 166.16812,-86.14175 79.53466,-5.18793 142.76303,92.22132 220.73373,78.00509 60.0416,-10.94924 0,-113.92629 125.39733,-113.92629" />
    <path
       inkscape:original-d="m 144.37356,246.29256 c 163.98057,-8.1381 116.32335,51.65521 177.73665,49.11368 69.88011,-2.89192 127.01756,-70.49352 196.93137,-72.40415 58.91165,-1.60995 104.20712,47.62715 169.02525,51.85604"
       inkscape:path-effect="#path-effect4173"
       sodipodi:nodetypes="caac"
       inkscape:connector-curvature="0"
       id="path4171"
       d="m 144.37356,246.29256 c 47.44121,42.5062 115.2016,61.23032 177.73665,49.11368 34.43579,-6.67219 66.51534,-21.92021 98.26594,-36.82798 31.75059,-14.90776 64.07335,-29.76843 98.66543,-35.57617 60.2595,-10.11711 124.80723,9.68579 169.02525,51.85604"
       style="fill:none;stroke:#000000;stroke-width:13.16682053px;stroke-linecap:butt;stroke-linejoin:miter;stroke-opacity:1;display:inline" />
    <path
       inkscape:original-d="m 143.23072,464.00682 c 163.98057,-8.1381 33.79735,67.50607 66.30808,77.11369 83.03732,24.53931 163.92769,-88.1977 249.21707,-73.26129 51.48322,9.01606 74.60311,86.13172 126.45382,92.71318 97.01892,12.31471 174.7078,-112.20511 272.448,-108.86223 74.91261,2.56214 127.91737,91.4446 202.62811,97.50915 114.2,9.27004 216.873,-117.0032 329.7142,-97.14286 57.0866,10.04738 83.1984,91.5927 140,103.14286"
       inkscape:path-effect="#path-effect4177;#path-effect4179"
       sodipodi:nodetypes="caaaaaac"
       inkscape:connector-curvature="0"
       id="path4175"
       d="m 143.23072,464.00682 c 1.20559,18.14059 8.44107,35.82928 20.29454,49.6144 11.85347,13.78512 28.25837,23.58926 46.01354,27.49929 21.77098,4.79439 44.72994,0.78562 65.50906,-7.28841 20.77911,-8.07404 39.77219,-20.05012 58.73281,-31.7743 18.96062,-11.72419 38.2154,-23.35661 59.28482,-30.63957 21.06941,-7.28296 44.34372,-9.98411 65.69038,-3.55901 25.28394,7.61018 45.09747,26.88896 63.63896,45.68804 18.54149,18.79908 37.85583,38.40894 62.81486,47.02514 23.91801,8.25683 50.63609,5.2832 74.28498,-3.71549 23.64889,-8.99869 44.69586,-23.64247 64.83343,-38.96321 20.13757,-15.32073 39.73264,-31.52846 61.59049,-44.27526 21.85786,-12.74679 46.43618,-22.00169 71.7391,-21.90827 18.98564,0.0701 37.67817,5.40908 54.91774,13.36246 17.23958,7.95338 33.15882,18.48008 48.68722,29.40382 31.0568,21.84748 62.06365,46.03473 99.02315,54.74287 28.416,6.69518 58.4734,3.59675 86.4731,-4.66836 27.9997,-8.26512 54.2444,-21.52033 79.9549,-35.35019 25.7106,-13.82986 51.148,-28.34564 78.1717,-39.3919 27.0236,-11.04626 55.933,-18.59017 85.1145,-17.73241 30.8189,0.90589 61.2875,11.41613 86.1105,29.70404 24.8229,18.28791 43.8907,44.27292 53.8895,73.43882"
       style="fill:none;stroke:#000000;stroke-width:13.16682053px;stroke-linecap:butt;stroke-linejoin:miter;stroke-opacity:1;display:inline" />
  </g>
</svg>
