<?xml version="1.0" encoding="UTF-8" standalone="no"?>
<!-- Created with Inkscape (http://www.inkscape.org/) -->

<svg
   xmlns:dc="http://purl.org/dc/elements/1.1/"
   xmlns:cc="http://creativecommons.org/ns#"
   xmlns:rdf="http://www.w3.org/1999/02/22-rdf-syntax-ns#"
   xmlns:svg="http://www.w3.org/2000/svg"
   xmlns="http://www.w3.org/2000/svg"
   xmlns:sodipodi="http://sodipodi.sourceforge.net/DTD/sodipodi-0.dtd"
   xmlns:inkscape="http://www.inkscape.org/namespaces/inkscape"
   width="3000"
   height="1200"
   id="svg4154"
   version="1.1"
   inkscape:version="0.48.2 r9819"
   sodipodi:docname="drawing-raide.svg">
  <defs
     id="defs4156">
    <inkscape:path-effect
       effect="spiro"
       id="path-effect4109"
       is_visible="true" />
    <inkscape:path-effect
       effect="spiro"
       id="path-effect4107"
       is_visible="true" />
    <inkscape:path-effect
       effect="spiro"
       id="path-effect4101"
       is_visible="true" />
  </defs>
  <sodipodi:namedview
     id="base"
     pagecolor="#ffffff"
     bordercolor="#666666"
     borderopacity="1.0"
     inkscape:pageopacity="0.0"
     inkscape:pageshadow="2"
     inkscape:zoom="0.24748737"
     inkscape:cx="1412.1948"
     inkscape:cy="343.43146"
     inkscape:document-units="px"
     inkscape:current-layer="layer1"
     showgrid="false"
     showborder="true"
     inkscape:showpageshadow="false"
     inkscape:window-width="1366"
     inkscape:window-height="744"
     inkscape:window-x="0"
     inkscape:window-y="24"
     inkscape:window-maximized="1" />
  <metadata
     id="metadata4159">
    <rdf:RDF>
      <cc:Work
         rdf:about="">
        <dc:format>image/svg+xml</dc:format>
        <dc:type
           rdf:resource="http://purl.org/dc/dcmitype/StillImage" />
        <dc:title></dc:title>
      </cc:Work>
    </rdf:RDF>
  </metadata>
  <g
     inkscape:label="Layer 1"
     inkscape:groupmode="layer"
     id="layer1"
     transform="translate(0,147.63782)">
    <path
       style="fill:none;stroke:#000000;stroke-width:40;stroke-linecap:butt;stroke-linejoin:miter;stroke-miterlimit:4;stroke-opacity:1;stroke-dasharray:none"
       d="M 453.18168,644.64783 C 340.26196,640.39433 231.21397,577.01893 171.61863,481.01189 112.02329,385.00486 103.61419,259.15894 149.90623,156.07645 196.19828,52.993947 295.84489,-24.326559 407.1948,-43.565901 c 111.34991,-19.239342 231.16406,20.162135 309.36137,101.735022 50.4203,52.596809 83.68539,121.766219 91.44441,194.212259 7.75902,72.44604 -10.39206,147.70144 -51.85289,207.61496 -41.46084,59.91352 -106.1711,103.684 -177.59418,118.08449 -71.42309,14.40049 -148.74587,-1.20582 -207.96053,-43.6588 C 328.23272,504.05254 295.51232,460.63728 277.18781,411.84271 258.86329,363.04815 254.89163,309.08139 265.0355,257.95606 275.17936,206.83073 299.31336,158.66317 333.54643,119.3593 367.7795,80.055427 411.97595,49.636574 460.60838,30.885991 523.60047,6.5989368 593.88981,2.0498995 659.72139,17.018785 c 65.83157,14.968886 127.00384,49.269142 174.84447,96.904625 47.84062,47.63548 82.30281,108.38607 99.64459,173.63273 17.34178,65.24666 17.63116,134.81933 1.84069,200.45869 -15.93422,66.23691 -48.30631,128.62906 -94.33289,178.85636 C 795.69168,717.09849 736.00491,754.9347 670.54,773.79133 605.07508,792.64795 533.99897,792.28691 469.13995,771.44142 404.28093,750.59593 345.99391,709.15973 306.10288,653.93353 248.18886,573.75582 231.86977,464.84819 264.8557,371.60427 c 16.49296,-46.62195 44.61953,-89.09898 81.2131,-122.36362 36.59357,-33.26463 81.59191,-57.23853 129.65138,-68.89666 66.71121,-16.18261 138.61474,-8.23516 201.24248,19.87226 62.62775,28.10743 115.86242,75.89289 152.6989,133.81815 50.5151,79.43484 69.8569,178.13356 53.06018,270.75937 -16.79672,92.62581 -69.56326,178.24844 -144.754,234.88784 C 662.77699,896.32102 565.9172,923.40836 472.25309,913.99008 378.58898,904.5718 289.06123,858.74249 226.65238,788.26693"
       id="path4099"
       inkscape:connector-curvature="0"
       inkscape:path-effect="#path-effect4101"
       inkscape:original-d="m 453.18168,644.64783 c 0,0 448.79676,-479.03817 263.37449,-586.478709 C 546.78158,-40.205879 551.12308,611.29673 370.59298,534.42203 213.71718,467.62063 298.44228,83.560691 460.60838,30.885991 669.7056,-37.032299 991.31936,275.22294 936.05114,488.01483 881.46422,698.18573 452.87398,813.96423 306.10288,653.93353 192.76348,530.35573 321.84198,246.97044 475.72018,180.34399 593.75406,129.2374 814.52317,206.30578 829.66156,334.0344 859.27965,583.93493 448.56978,911.30399 226.65238,788.26693"
       sodipodi:nodetypes="caaaaaaac" />
    <path
       style="fill:none;stroke:#000000;stroke-width:40;stroke-linecap:butt;stroke-linejoin:miter;stroke-miterlimit:4;stroke-opacity:1;stroke-dasharray:none"
       d="m 1212.2128,576.24323 c -6.6576,-64.80338 11.0846,-131.82366 48.9338,-184.84479 37.8492,-53.02113 95.4703,-91.57378 158.9216,-106.32986 63.4512,-14.75609 132.1709,-5.58499 189.5318,25.29429 57.3609,30.87928 102.8553,83.19339 125.4754,144.28456 16.5575,44.71762 20.8199,95.20982 4.5945,140.04901 -8.1128,22.4196 -21.2804,43.11524 -38.8408,59.24246 -17.5604,16.12722 -39.555,27.5748 -63.0305,31.74063 -23.6302,4.19329 -48.3504,0.95158 -70.6122,-8.01395 -22.2619,-8.96553 -42.0913,-23.52246 -58.3018,-41.21968 -32.4209,-35.39443 -49.87,-82.25613 -58.7106,-129.43377 -8.8405,-47.17763 -9.787,-95.41696 -13.4986,-143.27203 -3.7116,-47.85508 -10.4215,-96.25989 -29.909,-140.12471 -8.3374,-18.76688 -19.4897,-37.10386 -36.4794,-48.63891 -10.2236,-6.94125 -22.2626,-11.12967 -34.5669,-12.27344 -12.3043,-1.14377 -24.8512,0.73632 -36.37,5.21094 -23.0374,8.94925 -41.4414,28.27665 -50.9631,51.08349 -9.5216,22.80685 -10.4575,48.77583 -4.4126,72.73982 6.0448,23.964 18.8252,45.95406 35.2602,64.41219 32.8701,36.91625 78.952,59.17129 125.052,77.00498 46.1001,17.83369 93.9336,32.40131 136.2351,57.97147 67.4825,40.79139 117.488,109.50607 135.5485,186.26312 18.0606,76.75705 3.9417,160.55986 -38.2716,227.16214"
       id="path4103"
       inkscape:connector-curvature="0"
       inkscape:path-effect="#path-effect4107"
       inkscape:original-d="m 1212.2128,576.24323 c 0,0 407.5343,-258.41156 522.8626,-121.5958 53.8545,63.8884 -13.762,228.3118 -97.2768,231.0321 -172.1096,5.6059 -140.5006,-315.58116 -231.0322,-462.06414 -10.6542,-17.23937 -19.4032,-59.55374 -36.4794,-48.63891 -100.8486,64.45959 127.7896,204.23859 170.2347,316.14945 50.2051,132.371 127.0346,266.9432 97.2769,413.42526"
       sodipodi:nodetypes="caaaaac" />
    <path
       style="fill:none;stroke:#000000;stroke-width:40;stroke-linecap:butt;stroke-linejoin:miter;stroke-miterlimit:4;stroke-opacity:1;stroke-dasharray:none"
       d="m 2593.7734,437.09343 c 42.69,37.41255 68.0475,93.8519 67.6694,150.61448 -0.3782,56.76258 -26.4854,112.85907 -69.6701,149.69952 -29.1838,24.8964 -65.718,41.05655 -103.7649,45.9507 -38.047,4.89415 -77.4674,-1.4888 -112.0476,-18.09404 -34.5802,-16.60523 -64.1996,-43.36751 -84.2583,-76.06571 -20.0586,-32.69819 -30.492,-71.2144 -29.7296,-109.56725 0.7471,-37.58421 12.1236,-74.67481 31.0186,-107.17264 18.895,-32.49783 45.1639,-60.46286 75.3488,-82.86828 60.3698,-44.81085 134.9805,-66.86599 209.5215,-76.67234 44.5415,-5.85972 90.2563,-7.58775 134.0169,2.57525 43.7606,10.16301 85.6758,33.18491 112.1645,69.47027 16.4909,22.58991 26.5466,49.78066 28.9961,77.64198 2.4495,27.86132 -2.6822,56.31766 -14.46,81.68569 -11.7778,25.36803 -30.149,47.60349 -52.6772,64.17854 -22.5282,16.57504 -49.155,27.48009 -76.7969,31.74363 -52.2652,8.06147 -106.0675,-7.72001 -151.7186,-34.41486 -45.6511,-26.69485 -84.266,-63.74733 -121.3189,-101.47957 -37.0529,-37.73224 -73.2571,-76.72075 -115.5796,-108.42951 -42.3225,-31.70875 -91.7914,-56.10031 -144.5272,-60.04655 -53.184,-3.97978 -107.6775,13.89575 -148.1704,48.60443 -40.493,34.70867 -66.492,85.82746 -70.6924,138.99446"
       id="path4105"
       inkscape:connector-curvature="0"
       inkscape:path-effect="#path-effect4109"
       inkscape:original-d="m 2593.7734,437.09343 c 0,0 82.8708,247.2264 -2.0007,300.314 -103.3192,64.6248 -314.3061,-36.9002 -329.8004,-157.7763 -17.5205,-136.691 181.0581,-238.22185 315.8889,-266.71326 83.6555,-17.67686 210.4216,-5.61963 246.1814,72.04552 39.0257,84.75854 -26.2027,226.38774 -114.938,255.24984 -194.6009,63.2975 -329.4287,-323.7708 -533.1443,-304.37049 -95.6537,9.1088 -218.8628,187.59889 -218.8628,187.59889"
       sodipodi:nodetypes="caaaaaac" />
  </g>
</svg>
