<?xml version="1.0" encoding="UTF-8" standalone="no"?>
<!-- Created with Inkscape (http://www.inkscape.org/) -->

<svg
   xmlns:dc="http://purl.org/dc/elements/1.1/"
   xmlns:cc="http://creativecommons.org/ns#"
   xmlns:rdf="http://www.w3.org/1999/02/22-rdf-syntax-ns#"
   xmlns:svg="http://www.w3.org/2000/svg"
   xmlns="http://www.w3.org/2000/svg"
   xmlns:sodipodi="http://sodipodi.sourceforge.net/DTD/sodipodi-0.dtd"
   xmlns:inkscape="http://www.inkscape.org/namespaces/inkscape"
   width="1800"
   height="1000"
   id="svg4154"
   version="1.1"
   inkscape:version="0.48.2 r9819"
   sodipodi:docname="drawing.svg">
  <defs
     id="defs4156">
    <inkscape:path-effect
       effect="spiro"
       id="path-effect4179"
       is_visible="true" />
    <inkscape:path-effect
       is_visible="true"
       id="path-effect4177"
       effect="spiro" />
    <inkscape:path-effect
       is_visible="true"
       id="path-effect4173"
       effect="spiro" />
    <inkscape:path-effect
       effect="spiro"
       id="path-effect3583-3"
       is_visible="true" />
  </defs>
  <sodipodi:namedview
     id="base"
     pagecolor="#ffffff"
     bordercolor="#666666"
     borderopacity="1.0"
     inkscape:pageopacity="0.0"
     inkscape:pageshadow="2"
     inkscape:zoom="0.24748737"
     inkscape:cx="745.49411"
     inkscape:cy="303.02536"
     inkscape:document-units="px"
     inkscape:current-layer="layer1"
     showgrid="false"
     showborder="true"
     inkscape:showpageshadow="false"
     inkscape:window-width="1280"
     inkscape:window-height="739"
     inkscape:window-x="0"
     inkscape:window-y="26"
     inkscape:window-maximized="1" />
  <metadata
     id="metadata4159">
    <rdf:RDF>
      <cc:Work
         rdf:about="">
        <dc:format>image/svg+xml</dc:format>
        <dc:type
           rdf:resource="http://purl.org/dc/dcmitype/StillImage" />
        <dc:title></dc:title>
      </cc:Work>
    </rdf:RDF>
  </metadata>
  <g
     inkscape:label="Layer 1"
     inkscape:groupmode="layer"
     id="layer1"
     transform="translate(0,-52.362183)">
    <path
       style="font-size:medium;font-style:normal;font-variant:normal;font-weight:normal;font-stretch:normal;text-indent:0;text-align:start;text-decoration:none;line-height:normal;letter-spacing:normal;word-spacing:normal;text-transform:none;direction:ltr;block-progression:tb;writing-mode:lr-tb;text-anchor:start;baseline-shift:baseline;color:#000000;fill:#000000;fill-opacity:1;stroke:none;stroke-width:50;marker:none;visibility:visible;display:inline;overflow:visible;enable-background:accumulate;font-family:Sans;-inkscape-font-specification:Sans"
       d="m 277.125,700.3125 c -30.15384,0.0199 -60.20999,8.55501 -85.90625,25.15625 C 150.10474,752.03073 123.2046,797.19723 119.4375,846 l 49.875,3.84375 c 2.51042,-32.52245 21.63264,-64.67394 49.03125,-82.375 27.39863,-17.70106 64.6014,-21.95465 95.28125,-10.875 29.54434,10.66958 56.33145,35.98202 87.9375,61.0625 15.84321,12.57214 33.35063,25.10641 53.84375,34.34375 20.61987,9.29446 44.22155,15.05248 68.90625,12.65625 20.19281,-1.9602 38.3721,-9.09424 54.28125,-17.875 15.84535,-8.74555 29.4841,-19.05628 42.15625,-28.71875 12.66636,-9.65806 24.46383,-18.72724 36.28125,-25.78125 11.76773,-7.02434 23.70116,-12.07335 35.125,-13.96875 14.33771,-2.37885 30.58253,-0.23144 46.53125,5.15625 16.06427,5.42672 32.16503,14.07909 48.84375,23.84375 16.68977,9.77112 34.10105,20.73069 53.6875,30.125 19.63813,9.41908 41.58185,17.23441 65.625,19.125 38.66521,3.04036 77.38738,-10.20087 106.09375,-36.28125 28.7064,-26.08039 45.5783,-63.34629 46.25,-102.125 l -50,-0.875 c -0.4239,24.47603 -11.75641,49.53885 -29.875,66 -18.11861,16.46116 -44.15817,25.35648 -68.5625,23.4375 -15.52395,-1.22069 -31.75848,-6.59875 -47.90625,-14.34375 -16.19943,-7.76979 -32.50121,-17.93739 -50.0625,-28.21875 -17.57232,-10.28782 -36.55634,-20.75563 -58.09375,-28.03125 -21.65296,-7.31465 -45.90248,-11.27366 -70.71875,-7.15625 -19.73014,3.27354 -37.21387,11.21316 -52.5625,20.375 -15.29892,9.13217 -28.52265,19.47865 -40.96875,28.96875 -12.44033,9.48571 -24.19715,18.17313 -36,24.6875 -11.73907,6.47916 -23.72944,10.81521 -34.96875,11.90625 -13.70022,1.32993 -28.96121,-1.9466 -43.5,-8.5 -14.66554,-6.61054 -28.94619,-16.53734 -43.3125,-27.9375 -28.81301,-22.8641 -59.06188,-53.34586 -102.0625,-68.875 -17.26417,-6.23474 -35.37645,-9.29317 -53.46875,-9.28125 z"
       id="path3571-7"
       inkscape:connector-curvature="0" />
    <path
       style="font-size:medium;font-style:normal;font-variant:normal;font-weight:normal;font-stretch:normal;text-indent:0;text-align:start;text-decoration:none;line-height:normal;letter-spacing:normal;word-spacing:normal;text-transform:none;direction:ltr;block-progression:tb;writing-mode:lr-tb;text-anchor:start;baseline-shift:baseline;color:#000000;fill:#000000;fill-opacity:1;stroke:none;stroke-width:50;marker:none;visibility:visible;display:inline;overflow:visible;enable-background:accumulate;font-family:Sans;-inkscape-font-specification:Sans"
       d="m 553.5625,195.375 c -12.90039,-0.15353 -25.83353,0.81591 -38.65625,2.96875 -38.95178,6.5397 -73.28273,22.62827 -105.15625,37.59375 -31.82294,14.94173 -62.10695,29.06679 -92.40625,34.9375 -54.5022,10.56021 -114.93404,-6.14138 -156.28125,-43.1875 l -33.375,37.21875 c 53.53521,47.96628 128.6196,68.70432 199.1875,55.03125 38.57228,-7.47367 72.44674,-23.84494 104.125,-38.71875 31.62766,-14.85004 61.95512,-28.48672 92.1875,-33.5625 52.13114,-8.75242 109.37151,8.79931 147.625,45.28125 l 34.5,-36.15625 C 664.53917,217.89617 609.4642,196.04031 553.5625,195.375 z"
       id="path4171"
       inkscape:connector-curvature="0" />
    <path
       style="font-size:medium;font-style:normal;font-variant:normal;font-weight:normal;font-stretch:normal;text-indent:0;text-align:start;text-decoration:none;line-height:normal;letter-spacing:normal;word-spacing:normal;text-transform:none;direction:ltr;block-progression:tb;writing-mode:lr-tb;text-anchor:start;baseline-shift:baseline;color:#000000;fill:#000000;fill-opacity:1;stroke:none;stroke-width:50;marker:none;visibility:visible;display:inline;overflow:visible;enable-background:accumulate;font-family:Sans;-inkscape-font-specification:Sans"
       d="m 857.75,426.71875 c -31.45863,-0.11615 -60.08351,11.11005 -84.4375,25.3125 -24.20758,14.11708 -44.52968,31.06056 -64.125,45.96875 -19.5665,14.88626 -38.76255,27.95399 -58.59375,35.5 -19.51028,7.4239 -40.47925,9.21621 -57.21875,3.4375 -17.65964,-6.09635 -34.63755,-22.12984 -53.1875,-40.9375 -18.79361,-19.0547 -41.22835,-42.16401 -74.21875,-52.09375 -28.00069,-8.42789 -56.4242,-4.6416 -81.0625,3.875 -24.39305,8.43182 -45.17262,21.18429 -64.28125,33 -19.086,11.80171 -36.83128,22.83598 -54.625,29.75 -17.58831,6.8342 -35.78641,9.55847 -51.09375,6.1875 -12.34181,-2.7179 -24.19802,-9.82406 -32.4375,-19.40625 l -0.125,-0.15625 c -8.16484,-9.56522 -13.32262,-22.26888 -14.15625,-34.8125 l -49.90625,3.3125 c 1.57316,23.67146 10.81379,46.26195 26.28125,64.25 15.46746,17.98805 36.42522,30.52284 59.59375,35.625 28.23462,6.21781 55.96757,0.90761 79.9375,-8.40625 23.7645,-9.23406 44.00851,-22.16585 62.84375,-33.8125 18.81261,-11.63267 36.53546,-22.14715 54.28125,-28.28125 17.50052,-6.04932 35.65112,-7.64106 50.34375,-3.21875 17.57748,5.29062 34.74188,20.73779 53.03125,39.28125 18.53303,18.7905 40.21033,41.98895 72.46875,53.125 31.09652,10.73495 63.525,6.57348 91.3125,-4 27.46658,-10.45137 50.38511,-26.68228 71.09375,-42.4375 20.67982,-15.73327 39.52313,-31.18598 59.03125,-42.5625 19.36173,-11.29113 39.91529,-18.57069 59.0625,-18.5 14.35946,0.053 29.66915,4.20595 44.53125,11.0625 14.93613,6.8907 29.64747,16.51011 44.78125,27.15625 30.35948,21.35693 63.7079,48.26284 107.6875,58.625 33.9222,7.99251 68.2494,4.12891 99.2813,-5.03125 30.8922,-9.11895 58.6265,-23.27734 84.7187,-37.3125 26.0794,-14.02823 50.7719,-28.05837 75.7813,-38.28125 24.9333,-10.19183 50.5124,-16.59203 74.9062,-15.875 25.6261,0.75325 51.3907,9.63721 72.0312,24.84375 20.6404,15.20649 36.7485,37.1546 45.0626,61.40625 l 47.3124,-16.1875 c -11.6835,-34.08015 -33.7133,-64.09942 -62.7187,-85.46875 -29.0055,-21.36928 -64.1758,-33.50397 -100.1875,-34.5625 -33.9692,-0.99849 -66.1986,7.66181 -95.3125,19.5625 -29.038,11.86964 -55.2207,26.89976 -80.5625,40.53125 -25.3288,13.62456 -50.0803,25.96371 -75.1875,33.375 -24.9675,7.37006 -50.7465,9.71035 -73.6563,4.3125 -29.9394,-7.05412 -58.6208,-28.50572 -90.37495,-50.84375 L 972.5625,471.875 c -15.05788,-10.5064 -31.20139,-21.05804 -49.5,-29.5 -19.61704,-9.05021 -41.70068,-15.56907 -65.3125,-15.65625 z"
       id="path4175"
       inkscape:connector-curvature="0" />
  </g>
</svg>
